<svg width="19" height="19" viewBox="0 0 19 19" fill="none" xmlns="http://www.w3.org/2000/svg">
<path d="M9.24121 18.7334C7.99902 18.7334 6.83008 18.4961 5.73438 18.0215C4.63867 17.5527 3.67188 16.8994 2.83398 16.0615C2.00195 15.2236 1.34863 14.2568 0.874023 13.1611C0.399414 12.0654 0.162109 10.8965 0.162109 9.6543C0.162109 8.41211 0.399414 7.24316 0.874023 6.14746C1.34863 5.05176 2.00195 4.08789 2.83398 3.25586C3.67188 2.41797 4.63574 1.76172 5.72559 1.28711C6.82129 0.8125 7.99023 0.575195 9.23242 0.575195C10.4805 0.575195 11.6523 0.8125 12.748 1.28711C13.8438 1.76172 14.8105 2.41797 15.6484 3.25586C16.4863 4.08789 17.1426 5.05176 17.6172 6.14746C18.0918 7.24316 18.3291 8.41211 18.3291 9.6543C18.3291 10.8965 18.0918 12.0654 17.6172 13.1611C17.1426 14.2568 16.4863 15.2236 15.6484 16.0615C14.8105 16.8994 13.8438 17.5527 12.748 18.0215C11.6523 18.4961 10.4834 18.7334 9.24121 18.7334ZM9.24121 14.7871C9.3584 14.7871 9.45508 14.749 9.53125 14.6729C9.61328 14.5967 9.6543 14.4941 9.6543 14.3652V13.7588C10.3984 13.6885 11.0166 13.4512 11.5088 13.0469C12.001 12.6367 12.2471 12.083 12.2471 11.3857C12.2471 10.7646 12.0449 10.2666 11.6406 9.8916C11.2422 9.5166 10.6475 9.25586 9.85645 9.10938L9.6543 9.06543V6.78906C9.94727 6.8418 10.1934 6.95313 10.3926 7.12305C10.5918 7.28711 10.7354 7.50391 10.8232 7.77344C10.958 8.0957 11.1748 8.25684 11.4736 8.25684C11.6611 8.25684 11.8105 8.20117 11.9219 8.08984C12.0391 7.97852 12.0977 7.83496 12.0977 7.65918C12.0977 7.60645 12.0918 7.55371 12.0801 7.50098C12.0742 7.44824 12.0625 7.39844 12.0449 7.35156C11.9219 6.87695 11.6465 6.48145 11.2188 6.16504C10.791 5.84863 10.2695 5.6582 9.6543 5.59375V4.9873C9.6543 4.8584 9.61328 4.75586 9.53125 4.67969C9.45508 4.60352 9.3584 4.56543 9.24121 4.56543C9.11816 4.56543 9.01562 4.60352 8.93359 4.67969C8.85742 4.75586 8.81934 4.8584 8.81934 4.9873V5.59375C8.10449 5.66406 7.51562 5.9043 7.05273 6.31445C6.58984 6.72461 6.3584 7.25195 6.3584 7.89648C6.3584 8.48828 6.55469 8.96582 6.94727 9.3291C7.33984 9.68652 7.91699 9.95312 8.67871 10.1289L8.81934 10.1641V12.5723C8.4502 12.5195 8.15723 12.3994 7.94043 12.2119C7.72949 12.0244 7.58594 11.7988 7.50977 11.5352C7.44531 11.3652 7.36035 11.2422 7.25488 11.166C7.14941 11.084 7.01758 11.043 6.85938 11.043C6.67188 11.043 6.51953 11.1016 6.40234 11.2188C6.29102 11.3301 6.23535 11.4766 6.23535 11.6582C6.23535 11.7109 6.23828 11.7637 6.24414 11.8164C6.25586 11.8691 6.27051 11.9219 6.28809 11.9746C6.41699 12.4668 6.70703 12.8711 7.1582 13.1875C7.61523 13.5039 8.16895 13.6885 8.81934 13.7412V14.3652C8.81934 14.4941 8.85742 14.5967 8.93359 14.6729C9.01562 14.749 9.11816 14.7871 9.24121 14.7871ZM8.81934 8.85449L8.75781 8.83691C8.39453 8.72559 8.125 8.58789 7.94922 8.42383C7.7793 8.25977 7.69434 8.05469 7.69434 7.80859C7.69434 7.55664 7.79395 7.33691 7.99316 7.14941C8.19824 6.95605 8.47363 6.83301 8.81934 6.78027V8.85449ZM9.6543 10.3662L9.83008 10.4102C10.2285 10.5156 10.5068 10.6562 10.665 10.832C10.8291 11.002 10.9111 11.2188 10.9111 11.4824C10.9111 11.7695 10.8057 12.0127 10.5947 12.2119C10.3896 12.4053 10.0762 12.5254 9.6543 12.5723V10.3662Z" fill="#6161FF"/>
</svg>
