<svg width="19" height="21" viewBox="0 0 19 21" fill="none" xmlns="http://www.w3.org/2000/svg">
<path d="M0.443359 3.9043C0.443359 3.41211 0.589844 3.02539 0.882812 2.74414C1.18164 2.46289 1.58301 2.32227 2.08691 2.32227H3.75684C3.85059 1.86523 4.06152 1.51074 4.38965 1.25879C4.72363 1.00098 5.16309 0.87207 5.70801 0.87207H12.7832C13.334 0.87207 13.7734 1.00098 14.1016 1.25879C14.4297 1.51074 14.6406 1.86523 14.7344 2.32227H16.4043C16.9082 2.32227 17.3066 2.46289 17.5996 2.74414C17.8984 3.02539 18.0479 3.41211 18.0479 3.9043C18.0479 5.09375 17.8516 6.14551 17.459 7.05957C17.0664 7.96777 16.4775 8.74121 15.6924 9.37988C14.9131 10.0127 13.9404 10.5107 12.7744 10.874C12.4932 11.2256 12.1973 11.542 11.8867 11.8232C11.5762 12.1045 11.2656 12.3447 10.9551 12.5439V16.1914H12.3262C12.959 16.1914 13.4424 16.3672 13.7764 16.7188C14.1104 17.0645 14.2773 17.5391 14.2773 18.1426V19.6367C14.2773 19.8711 14.1982 20.0615 14.04 20.208C13.8818 20.3545 13.6914 20.4277 13.4688 20.4277H5.01367C4.79688 20.4277 4.60938 20.3545 4.45117 20.208C4.29297 20.0615 4.21387 19.8711 4.21387 19.6367V18.1426C4.21387 17.5391 4.38086 17.0645 4.71484 16.7188C5.04883 16.3672 5.5293 16.1914 6.15625 16.1914H7.53613V12.5439C7.22559 12.3447 6.91504 12.1045 6.60449 11.8232C6.29395 11.542 5.99512 11.2256 5.70801 10.874C4.54199 10.5107 3.56934 10.0127 2.79004 9.37988C2.01074 8.74121 1.4248 7.96777 1.03223 7.05957C0.639648 6.14551 0.443359 5.09375 0.443359 3.9043ZM1.91113 4.10645C1.91113 5.23145 2.12793 6.18945 2.56152 6.98047C2.99512 7.77148 3.63086 8.38965 4.46875 8.83496C4.22852 8.33691 4.03809 7.80664 3.89746 7.24414C3.75684 6.68164 3.68652 6.0957 3.68652 5.48633V3.86035H2.15723C2.08691 3.86035 2.02832 3.88672 1.98145 3.93945C1.93457 3.98633 1.91113 4.04199 1.91113 4.10645ZM14.0225 8.83496C14.8604 8.38965 15.4961 7.77148 15.9297 6.98047C16.3633 6.18945 16.5801 5.23145 16.5801 4.10645C16.5801 4.04199 16.5566 3.98633 16.5098 3.93945C16.4629 3.88672 16.4043 3.86035 16.334 3.86035H14.8047V5.48633C14.8047 6.0957 14.7314 6.68164 14.585 7.24414C14.4443 7.80664 14.2568 8.33691 14.0225 8.83496Z" fill="#6161FF"/>
</svg>
